# xmcd CD database file generated by OrangeCD 5.2
#
# Track frame offsets:
#	150
#	22561
#	42324
#	67539
#	90084
#	117467
#	137557
#	153039
#	169472
#	194415
#	215291
#
# Disc length: 3134 seconds
#
# Revision: 0
# Processed by: cddbd v1.5.1PL0 Copyright (c) Steve Scherf et al.
# Submitted via: OrangeCD 5.2
#
DISCID=7e0c3c0b
DTITLE=The Cate Brothers - Play By The Rules
DYEAR=2004
DGENRE=Blues
TTITLE0=She Don't Play By The Rules
TTITLE1=Let's Start All Over Again
TTITLE2=Out On A Limb
TTITLE3=This Side Of Heaven
TTITLE4=Child Of The Wild Blue Yonder
TTITLE5=Think
TTITLE6=Wake Up Call
TTITLE7=The Shape I'm In
TTITLE8=Back To Memphis
TTITLE9=Why Oh Why
TTITLE10=Yield Not To Temptation
EXTD=
EXTT0=
EXTT1=
EXTT2=
EXTT3=
EXTT4=
EXTT5=
EXTT6=
EXTT7=
EXTT8=
EXTT9=
EXTT10=
PLAYORDER=
